<?xml version="1.0" encoding="utf-8"?>
<!-- Generator: Adobe Illustrator 25.4.1, SVG Export Plug-In . SVG Version: 6.00 Build 0)  -->
<svg version="1.1" id="Layer_1" xmlns="http://www.w3.org/2000/svg" xmlns:xlink="http://www.w3.org/1999/xlink" x="0px" y="0px"
	 viewBox="0 0 455.2 491.7" style="enable-background:new 0 0 455.2 491.7;" xml:space="preserve">
<style type="text/css">
	.st0{fill:none;}
	.st1{fill:#999999;stroke:#BCBEC0;stroke-width:0.3242;stroke-miterlimit:10;}
	.st2{font-family:'Rig-BoldInline';}
	.st3{font-size:55.4256px;}
	.st4{fill:#DE0605;}
	.st5{fill:#FD6534;}
	.st6{fill:#C4C524;}
	.st7{fill:#08BC06;}
	.st8{fill:#059DFC;}
	.st9{fill:#050586;}
</style>
<g>
	<rect x="274.6" y="158.4" class="st0" width="0" height="0"/>
</g>
<g>
	<g>
		<text transform="matrix(0.9887 0 0 1 129.0532 86.1897)" class="st1 st2 st3">OMBRA</text>
		<text transform="matrix(0.9887 0 0 1 130.4751 172.7912)" class="st4 st2 st3">OMBRA</text>
		<rect x="170.6" y="46.2" class="st0" width="0" height="0"/>
		<rect x="505.5" y="432.3" class="st0" width="0" height="0"/>
	</g>
	<ellipse class="st4" cx="129.9" cy="153.8" rx="16.2" ry="16.4"/>
	<text transform="matrix(0.9887 0 0 1 130.4751 230.2961)" class="st5 st2 st3">OMBRA</text>
	<ellipse class="st5" cx="129.9" cy="211.3" rx="16.2" ry="16.4"/>
	<text transform="matrix(0.9887 0 0 1 130.4751 288.4768)" class="st6 st2 st3">OMBRA</text>
	<ellipse class="st6" cx="129.9" cy="269.5" rx="16.2" ry="16.4"/>
	<text transform="matrix(0.9887 0 0 1 130.4751 348.6877)" class="st7 st2 st3">OMBRA</text>
	<ellipse class="st7" cx="129.9" cy="329.7" rx="16.2" ry="16.4"/>
	<text transform="matrix(0.9887 0 0 1 129.1382 405.5168)" class="st8 st2 st3">OMBRA</text>
	<ellipse class="st8" cx="128.6" cy="386.5" rx="16.2" ry="16.4"/>
	<text transform="matrix(0.9887 0 0 1 129.1382 464.3742)" class="st9 st2 st3">OMBRA</text>
	<ellipse class="st9" cx="128.6" cy="445.4" rx="16.2" ry="16.4"/>
</g>
</svg>
