<?xml version="1.0" encoding="utf-8"?>
<!-- Generator: Adobe Illustrator 25.4.1, SVG Export Plug-In . SVG Version: 6.00 Build 0)  -->
<svg version="1.1" id="Layer_1" xmlns="http://www.w3.org/2000/svg" xmlns:xlink="http://www.w3.org/1999/xlink" x="0px" y="0px"
	 viewBox="0 0 453.5 490.5" style="enable-background:new 0 0 453.5 490.5;" xml:space="preserve">
<style type="text/css">
	.st0{fill:none;}
	.st1{fill:none;stroke:#000000;stroke-width:1.001;stroke-miterlimit:10;}
	.st2{fill:none;stroke:#000000;stroke-width:0.7078;stroke-miterlimit:10;}
	.st3{fill:#DE0605;}
	.st4{font-family:'Rig-BoldInline';}
	.st5{font-size:55.4352px;}
	.st6{fill:#999999;}
	.st7{fill:#FD6634;}
	.st8{fill:#C4C525;}
	.st9{fill:#0CBC06;}
	.st10{fill:#079DFC;}
	.st11{fill:#060586;}
</style>
<g>
	<path class="st0" d="M268.7,110.5L268.7,110.5L268.7,110.5z"/>
</g>
<path class="st1" d="M680.3-165.6"/>
<path class="st1" d="M0.1-22.7"/>
<path class="st2" d="M226.9-18.2"/>
<path class="st2" d="M0.1-18.2"/>
<text transform="matrix(0.9885 0 0 1 144.1563 164.7504)" class="st3 st4 st5">y ou!</text>
<text transform="matrix(0.9885 0 0 1 123.6903 78.7205)" class="st6 st4 st5">thank</text>
<ellipse class="st3" cx="199.9" cy="145.3" rx="16.2" ry="16.4"/>
<g>
	<path class="st0" d="M268.7,150.2L268.7,150.2L268.7,150.2z"/>
</g>
<text transform="matrix(0.9885 0 0 1 144.1563 222.2659)" class="st7 st4 st5">y ou!</text>
<ellipse class="st7" cx="199.9" cy="203" rx="16.2" ry="16.4"/>
<text transform="matrix(0.9885 0 0 1 144.1563 280.4549)" class="st8 st4 st5">y ou!</text>
<ellipse class="st8" cx="199.9" cy="261.5" rx="16.2" ry="16.4"/>
<g>
	<path class="st0" d="M268.7,246.6L268.7,246.6L268.7,246.6z"/>
</g>
<text transform="matrix(0.9885 0 0 1 144.1563 340.6774)" class="st9 st4 st5">y ou!</text>
<ellipse class="st9" cx="199.9" cy="321" rx="16.2" ry="16.4"/>
<text transform="matrix(0.9885 0 0 1 144.1563 397.5172)" class="st10 st4 st5">y ou!</text>
<ellipse class="st10" cx="199.9" cy="377.7" rx="16.2" ry="16.4"/>
<g>
	<path class="st0" d="M268.7,342.9L268.7,342.9L268.7,342.9z"/>
</g>
<text transform="matrix(0.9885 0 0 1 144.1563 456.3849)" class="st11 st4 st5">y ou!</text>
<ellipse class="st11" cx="199.9" cy="437.2" rx="16.2" ry="16.4"/>
<text transform="matrix(1 0 0 1 511.3262 -45.3525)" style="font-family:'MyriadPro-Regular'; font-size:12px;">Lorem ipsum</text>
</svg>
